As promised Silk S01 E04-06 in 720p.																																												Enjoy and please share.    																																													TTLTTLTTLTTLTTLTTLTTLTTLTTLTTLTTLTTLTTLTTLTTLTTLTTL																																																		Silk_S01_E04_720p.HDTV.x264_TTL.mkv
Format                           : Matroska
File size                        : 1.46 GiB
Duration                         : 59mn 23s
Overall bit rate                 : 3 516 Kbps
Encoded date                     : UTC 2012-05-31 23:52:21
Writing application              : mkvmerge v2.4.0 ('Fumbling Towards Ecstasy') built on Oct 11 2008 20:13:15
Writing library                  : libebml v0.7.7 + libmatroska v0.8.1

Video
ID                               : 1
Format                           : AVC
Format/Info                      : Advanced Video Codec
Format profile                   : High@L3.1
Format settings, CABAC           : Yes
Format settings, ReFrames        : 4 frames
Muxing mode                      : Container profile=Unknown@3.1
Codec ID                         : V_MPEG4/ISO/AVC
Duration                         : 59mn 23s
Bit rate                         : 3 254 Kbps
Nominal bit rate                 : 3 320 Kbps
Width                            : 1 280 pixels
Height                           : 720 pixels
Display aspect ratio             : 16:9
Frame rate                       : 25.000 fps
Resolution                       : 8 bits
Colorimetry                      : 4:2:0
Scan type                        : Progressive
Bits/(Pixel*Frame)               : 0.141
Stream size                      : 1.35 GiB (93%)
Writing library                  : x264 core 105 r1732 2b04482


Audio
ID                               : 2
Format                           : AC-3
Format/Info                      : Audio Coding 3
Codec ID                         : A_AC3
Duration                         : 59mn 23s
Bit rate mode                    : Constant
Bit rate                         : 192 Kbps
Channel(s)                       : 2 channels
Channel positions                : L R
Sampling rate                    : 48.0 KHz
Stream size                      : 81.6 MiB (5%)

